<mxfile host="app.diagrams.net" agent="Mozilla/5.0 (Windows NT 10.0; Win64; x64) AppleWebKit/537.36 (KHTML, like Gecko) Chrome/137.0.0.0 Safari/537.36" version="27.1.4">
  <diagram name="Page-1" id="cILcPjMKkTrRXY_yUNa1">
    <mxGraphModel dx="1281" dy="596" grid="1" gridSize="10" guides="1" tooltips="1" connect="1" arrows="1" fold="1" page="1" pageScale="1" pageWidth="850" pageHeight="1100" math="0" shadow="0">
      <root>
        <mxCell id="0" />
        <mxCell id="1" parent="0" />
        <mxCell id="UJUAEwXC5Ducen36Qidt-1" value="" style="rounded=0;whiteSpace=wrap;html=1;" vertex="1" parent="1">
          <mxGeometry x="80" width="680" height="60" as="geometry" />
        </mxCell>
        <mxCell id="UJUAEwXC5Ducen36Qidt-2" value="" style="rounded=0;whiteSpace=wrap;html=1;" vertex="1" parent="1">
          <mxGeometry x="80" y="90" width="680" height="240" as="geometry" />
        </mxCell>
        <mxCell id="UJUAEwXC5Ducen36Qidt-3" value="Protect Yourself Online" style="text;html=1;align=center;verticalAlign=middle;whiteSpace=wrap;rounded=0;fontSize=21;fontStyle=1" vertex="1" parent="1">
          <mxGeometry x="297.5" y="140" width="245" height="30" as="geometry" />
        </mxCell>
        <mxCell id="UJUAEwXC5Ducen36Qidt-4" value="Cyber threats are everywhereâ€”but so are solutions. This page gives you quick, practical steps to stay safe online." style="text;html=1;align=center;verticalAlign=middle;whiteSpace=wrap;rounded=0;fontSize=15;" vertex="1" parent="1">
          <mxGeometry x="281.25" y="150" width="277.5" height="160" as="geometry" />
        </mxCell>
        <mxCell id="UJUAEwXC5Ducen36Qidt-5" value="" style="rounded=0;whiteSpace=wrap;html=1;fontSize=13;" vertex="1" parent="1">
          <mxGeometry x="80" y="360" width="680" height="280" as="geometry" />
        </mxCell>
        <mxCell id="UJUAEwXC5Ducen36Qidt-6" value="âœ… Cyber Hygiene Checklist&amp;nbsp;" style="text;html=1;align=center;verticalAlign=middle;whiteSpace=wrap;rounded=0;fontSize=22;fontStyle=1" vertex="1" parent="1">
          <mxGeometry x="251.88" y="380" width="335" height="30" as="geometry" />
        </mxCell>
        <mxCell id="UJUAEwXC5Ducen36Qidt-7" value="" style="whiteSpace=wrap;html=1;aspect=fixed;" vertex="1" parent="1">
          <mxGeometry x="300" y="430" width="20" height="20" as="geometry" />
        </mxCell>
        <mxCell id="UJUAEwXC5Ducen36Qidt-8" value="" style="whiteSpace=wrap;html=1;aspect=fixed;" vertex="1" parent="1">
          <mxGeometry x="300" y="460" width="20" height="20" as="geometry" />
        </mxCell>
        <mxCell id="UJUAEwXC5Ducen36Qidt-9" value="" style="whiteSpace=wrap;html=1;aspect=fixed;" vertex="1" parent="1">
          <mxGeometry x="300" y="490" width="20" height="20" as="geometry" />
        </mxCell>
        <mxCell id="UJUAEwXC5Ducen36Qidt-10" value="" style="whiteSpace=wrap;html=1;aspect=fixed;" vertex="1" parent="1">
          <mxGeometry x="300" y="520" width="20" height="20" as="geometry" />
        </mxCell>
        <mxCell id="UJUAEwXC5Ducen36Qidt-11" value="" style="whiteSpace=wrap;html=1;aspect=fixed;" vertex="1" parent="1">
          <mxGeometry x="300" y="550" width="20" height="20" as="geometry" />
        </mxCell>
        <mxCell id="UJUAEwXC5Ducen36Qidt-12" value="Use strong, unique passwords&amp;nbsp;" style="text;html=1;align=center;verticalAlign=middle;whiteSpace=wrap;rounded=0;fontSize=13;" vertex="1" parent="1">
          <mxGeometry x="320" y="425" width="208.75" height="30" as="geometry" />
        </mxCell>
        <mxCell id="UJUAEwXC5Ducen36Qidt-13" value="Enable two-factor authentication" style="text;html=1;align=center;verticalAlign=middle;whiteSpace=wrap;rounded=0;fontSize=13;" vertex="1" parent="1">
          <mxGeometry x="320" y="455" width="208.75" height="30" as="geometry" />
        </mxCell>
        <mxCell id="UJUAEwXC5Ducen36Qidt-14" value="Avoid clicking suspicious links&amp;nbsp;" style="text;html=1;align=center;verticalAlign=middle;whiteSpace=wrap;rounded=0;fontSize=13;" vertex="1" parent="1">
          <mxGeometry x="320" y="485" width="198.75" height="30" as="geometry" />
        </mxCell>
        <mxCell id="UJUAEwXC5Ducen36Qidt-15" value="Update your software regularly&amp;nbsp;" style="text;html=1;align=center;verticalAlign=middle;whiteSpace=wrap;rounded=0;fontSize=13;" vertex="1" parent="1">
          <mxGeometry x="320" y="515" width="198.75" height="30" as="geometry" />
        </mxCell>
        <mxCell id="UJUAEwXC5Ducen36Qidt-16" value="Lock your devices when not in use" style="text;html=1;align=center;verticalAlign=middle;whiteSpace=wrap;rounded=0;fontSize=13;" vertex="1" parent="1">
          <mxGeometry x="320" y="545" width="220" height="30" as="geometry" />
        </mxCell>
        <mxCell id="UJUAEwXC5Ducen36Qidt-21" value="Save Progress" style="rounded=1;whiteSpace=wrap;html=1;" vertex="1" parent="1">
          <mxGeometry x="385" y="590" width="90" height="30" as="geometry" />
        </mxCell>
        <mxCell id="UJUAEwXC5Ducen36Qidt-22" value="" style="rounded=0;whiteSpace=wrap;html=1;" vertex="1" parent="1">
          <mxGeometry x="80" y="680" width="680" height="520" as="geometry" />
        </mxCell>
        <mxCell id="UJUAEwXC5Ducen36Qidt-23" value="Common Cyber Threats" style="text;html=1;align=center;verticalAlign=middle;whiteSpace=wrap;rounded=0;fontSize=21;fontStyle=1" vertex="1" parent="1">
          <mxGeometry x="294.38" y="700" width="260" height="30" as="geometry" />
        </mxCell>
        <mxCell id="UJUAEwXC5Ducen36Qidt-25" value="" style="whiteSpace=wrap;html=1;aspect=fixed;" vertex="1" parent="1">
          <mxGeometry x="329.38" y="760" width="190" height="190" as="geometry" />
        </mxCell>
        <mxCell id="UJUAEwXC5Ducen36Qidt-26" value="" style="whiteSpace=wrap;html=1;aspect=fixed;" vertex="1" parent="1">
          <mxGeometry x="104.38" y="760" width="190" height="190" as="geometry" />
        </mxCell>
        <mxCell id="UJUAEwXC5Ducen36Qidt-27" value="" style="whiteSpace=wrap;html=1;aspect=fixed;" vertex="1" parent="1">
          <mxGeometry x="554.38" y="760" width="190" height="190" as="geometry" />
        </mxCell>
        <mxCell id="UJUAEwXC5Ducen36Qidt-28" value="" style="whiteSpace=wrap;html=1;aspect=fixed;" vertex="1" parent="1">
          <mxGeometry x="104.38" y="980" width="190" height="190" as="geometry" />
        </mxCell>
        <mxCell id="UJUAEwXC5Ducen36Qidt-29" value="" style="whiteSpace=wrap;html=1;aspect=fixed;" vertex="1" parent="1">
          <mxGeometry x="329.38" y="980" width="190" height="190" as="geometry" />
        </mxCell>
        <mxCell id="UJUAEwXC5Ducen36Qidt-30" value="" style="whiteSpace=wrap;html=1;aspect=fixed;" vertex="1" parent="1">
          <mxGeometry x="554.38" y="980" width="190" height="190" as="geometry" />
        </mxCell>
        <mxCell id="UJUAEwXC5Ducen36Qidt-31" value="" style="rounded=0;whiteSpace=wrap;html=1;" vertex="1" parent="1">
          <mxGeometry x="80" y="1220" width="680" height="300" as="geometry" />
        </mxCell>
        <mxCell id="UJUAEwXC5Ducen36Qidt-32" value="ðŸ“Š Quick Quiz: Are You Cyber Smart?&amp;nbsp;&amp;nbsp;" style="text;html=1;align=center;verticalAlign=middle;whiteSpace=wrap;rounded=0;fontSize=21;fontStyle=1" vertex="1" parent="1">
          <mxGeometry x="205.62" y="1250" width="450" height="30" as="geometry" />
        </mxCell>
        <mxCell id="UJUAEwXC5Ducen36Qidt-33" value="Which is a strong password?" style="text;html=1;align=center;verticalAlign=middle;whiteSpace=wrap;rounded=0;fontSize=16;" vertex="1" parent="1">
          <mxGeometry x="320.62" y="1290" width="250.62" height="30" as="geometry" />
        </mxCell>
        <mxCell id="UJUAEwXC5Ducen36Qidt-34" value="" style="ellipse;whiteSpace=wrap;html=1;aspect=fixed;" vertex="1" parent="1">
          <mxGeometry x="310" y="1330" width="20" height="20" as="geometry" />
        </mxCell>
        <mxCell id="UJUAEwXC5Ducen36Qidt-35" value="" style="ellipse;whiteSpace=wrap;html=1;aspect=fixed;" vertex="1" parent="1">
          <mxGeometry x="310" y="1360" width="20" height="20" as="geometry" />
        </mxCell>
        <mxCell id="UJUAEwXC5Ducen36Qidt-36" value="" style="ellipse;whiteSpace=wrap;html=1;aspect=fixed;" vertex="1" parent="1">
          <mxGeometry x="310" y="1390" width="20" height="20" as="geometry" />
        </mxCell>
        <mxCell id="UJUAEwXC5Ducen36Qidt-37" value="john1234" style="text;html=1;align=center;verticalAlign=middle;whiteSpace=wrap;rounded=0;" vertex="1" parent="1">
          <mxGeometry x="340.62" y="1325" width="60" height="30" as="geometry" />
        </mxCell>
        <mxCell id="UJUAEwXC5Ducen36Qidt-38" value="password1" style="text;html=1;align=center;verticalAlign=middle;whiteSpace=wrap;rounded=0;" vertex="1" parent="1">
          <mxGeometry x="340.62" y="1355" width="60" height="30" as="geometry" />
        </mxCell>
        <mxCell id="UJUAEwXC5Ducen36Qidt-39" value="Y9$dT!m@47" style="text;html=1;align=center;verticalAlign=middle;whiteSpace=wrap;rounded=0;" vertex="1" parent="1">
          <mxGeometry x="350.62" y="1385" width="60" height="30" as="geometry" />
        </mxCell>
        <mxCell id="UJUAEwXC5Ducen36Qidt-40" value="Next Question" style="rounded=0;whiteSpace=wrap;html=1;" vertex="1" parent="1">
          <mxGeometry x="400.93" y="1430" width="90" height="30" as="geometry" />
        </mxCell>
        <mxCell id="UJUAEwXC5Ducen36Qidt-41" value="Your score:" style="text;html=1;align=center;verticalAlign=middle;whiteSpace=wrap;rounded=0;fontSize=14;" vertex="1" parent="1">
          <mxGeometry x="298.12" y="1470" width="80" height="30" as="geometry" />
        </mxCell>
        <mxCell id="UJUAEwXC5Ducen36Qidt-42" value="2/3" style="text;html=1;align=center;verticalAlign=middle;whiteSpace=wrap;rounded=0;fontStyle=1" vertex="1" parent="1">
          <mxGeometry x="362.81" y="1470" width="60" height="30" as="geometry" />
        </mxCell>
        <mxCell id="UJUAEwXC5Ducen36Qidt-43" value="" style="rounded=0;whiteSpace=wrap;html=1;" vertex="1" parent="1">
          <mxGeometry x="80" y="1550" width="680" height="150" as="geometry" />
        </mxCell>
        <mxCell id="UJUAEwXC5Ducen36Qidt-44" value="ðŸ’¡ Cyber Tips Slider" style="text;html=1;align=center;verticalAlign=middle;whiteSpace=wrap;rounded=0;fontSize=21;fontStyle=1" vertex="1" parent="1">
          <mxGeometry x="317.65" y="1557.5" width="234.07" height="30" as="geometry" />
        </mxCell>
        <mxCell id="UJUAEwXC5Ducen36Qidt-45" value="&quot;Use a password manager to stay organized.&quot;" style="text;html=1;align=center;verticalAlign=middle;whiteSpace=wrap;rounded=0;fontSize=14;" vertex="1" parent="1">
          <mxGeometry x="300" y="1597.5" width="288.76" height="30" as="geometry" />
        </mxCell>
        <mxCell id="UJUAEwXC5Ducen36Qidt-46" value="&amp;lt;Prev" style="rounded=1;whiteSpace=wrap;html=1;" vertex="1" parent="1">
          <mxGeometry x="310" y="1642.5" width="79.38" height="30" as="geometry" />
        </mxCell>
        <mxCell id="UJUAEwXC5Ducen36Qidt-47" value="Next&amp;gt;" style="rounded=1;whiteSpace=wrap;html=1;" vertex="1" parent="1">
          <mxGeometry x="468.13" y="1642.5" width="79.38" height="30" as="geometry" />
        </mxCell>
        <mxCell id="UJUAEwXC5Ducen36Qidt-48" value="Explore Tools &amp;amp; Resources" style="rounded=1;whiteSpace=wrap;html=1;" vertex="1" parent="1">
          <mxGeometry x="356.57" y="1730" width="175.62" height="60" as="geometry" />
        </mxCell>
        <mxCell id="UJUAEwXC5Ducen36Qidt-49" value="" style="rounded=0;whiteSpace=wrap;html=1;" vertex="1" parent="1">
          <mxGeometry x="79.38" y="1830" width="680" height="60" as="geometry" />
        </mxCell>
        <mxCell id="UJUAEwXC5Ducen36Qidt-55" value="Logo" style="text;html=1;align=center;verticalAlign=middle;whiteSpace=wrap;rounded=0;" vertex="1" parent="1">
          <mxGeometry x="145.62" y="15" width="60" height="30" as="geometry" />
        </mxCell>
        <mxCell id="UJUAEwXC5Ducen36Qidt-56" value="Home" style="text;html=1;align=center;verticalAlign=middle;whiteSpace=wrap;rounded=0;" vertex="1" parent="1">
          <mxGeometry x="494.38" y="15" width="60" height="30" as="geometry" />
        </mxCell>
        <mxCell id="UJUAEwXC5Ducen36Qidt-57" value="Protect Your self" style="text;html=1;align=center;verticalAlign=middle;whiteSpace=wrap;rounded=0;" vertex="1" parent="1">
          <mxGeometry x="558.75" y="15" width="100" height="30" as="geometry" />
        </mxCell>
        <mxCell id="UJUAEwXC5Ducen36Qidt-58" value="Resources" style="text;html=1;align=center;verticalAlign=middle;whiteSpace=wrap;rounded=0;" vertex="1" parent="1">
          <mxGeometry x="670" y="15" width="60" height="30" as="geometry" />
        </mxCell>
      </root>
    </mxGraphModel>
  </diagram>
</mxfile>
